<svg width="32" height="32" viewBox="0 0 32 32" fill="none" xmlns="http://www.w3.org/2000/svg">
<rect x="5.33337" y="4" width="21.3333" height="24" rx="2" fill="#7E869E" fill-opacity="0.25"/>
<path d="M5.33337 25.3332C5.33337 24.7132 5.33337 24.4032 5.40152 24.1489C5.58646 23.4587 6.12555 22.9196 6.81574 22.7347C7.07007 22.6665 7.38006 22.6665 8.00004 22.6665H22.6667C24.5523 22.6665 25.4951 22.6665 26.0809 22.0807C26.6667 21.4949 26.6667 20.5521 26.6667 18.6665V23.9998C26.6667 25.8855 26.6667 26.8283 26.0809 27.4141C25.4951 27.9998 24.5523 27.9998 22.6667 27.9998H8.00004C7.38006 27.9998 7.07007 27.9998 6.81574 27.9317C6.12555 27.7468 5.58646 27.2077 5.40152 26.5175C5.33337 26.2631 5.33337 25.9532 5.33337 25.3332Z" fill="#222222"/>
<path d="M12.6666 14.0002L15.2272 16.5608C15.2858 16.6193 15.3808 16.6193 15.4394 16.5608L20.6666 11.3335" stroke="#222222" stroke-width="1.2"/>
</svg>
