<svg width="53" height="22" viewBox="0 0 53 22" fill="none" xmlns="http://www.w3.org/2000/svg">
<path d="M4.04297 8.58984C4.04297 10.2539 5.13281 12.1055 6.72656 12.8555L6.09375 13.7227C4.91602 13.1543 3.98438 11.9707 3.51562 10.5938C3.0293 12.0996 2.04492 13.3945 0.84375 13.9922L0.1875 13.1133C1.78125 12.3516 2.94141 10.3711 2.94141 8.58984V7.47656H0.574219V6.55078H6.32812V7.47656H4.04297V8.58984ZM8.56641 5.49609V9.65625H10.2539V10.5938H8.56641V15.9961H7.45312V5.49609H8.56641ZM13.717 8.36719C13.717 10.043 14.4202 11.8359 15.8264 12.6914L15.2053 13.5469C14.2209 12.9551 13.553 11.9062 13.2014 10.6875C12.8088 12.0234 12.0881 13.1602 11.0686 13.7812L10.3772 12.9492C11.8655 12.0586 12.6389 10.207 12.6389 8.41406V6.45703H13.717V8.36719ZM19.553 5.49609V15.9961H18.4866V5.49609H19.553ZM17.3733 5.69531V15.4805H16.3186V10.1133H14.6897V9.1875H16.3186V5.69531H17.3733ZM29.3442 5.49609V15.9961H28.2309V5.49609H29.3442ZM27.2114 7.16016V8.0625H20.8833V7.16016H23.4731V5.60156H24.5981V7.16016H27.2114ZM24.0591 8.82422C25.5942 8.82422 26.7075 9.83203 26.7075 11.2617C26.7075 12.7031 25.5942 13.6992 24.0591 13.7109C22.5356 13.6992 21.4223 12.7031 21.4223 11.2617C21.4223 9.83203 22.5356 8.82422 24.0591 8.82422ZM24.0591 9.73828C23.145 9.73828 22.477 10.3594 22.477 11.2617C22.477 12.1758 23.145 12.7852 24.0591 12.7734C24.9731 12.7852 25.6411 12.1758 25.6411 11.2617C25.6411 10.3594 24.9731 9.73828 24.0591 9.73828Z" fill="#8A8585"/>
<path d="M40 7L44 11L40 15" stroke="#8A8585" stroke-linecap="round"/>
</svg>
