<svg width="390" height="844" viewBox="0 0 390 844" fill="none" xmlns="http://www.w3.org/2000/svg">
<rect width="390" height="844" fill="white"/>
<path d="M46.0332 15.2305V38.3867H42.7578V15.2305H46.0332ZM33.4902 16.8555C36.9688 16.8555 39.5586 20.0547 39.5586 25.082C39.5586 30.1602 36.9688 33.334 33.4902 33.334C29.9355 33.334 27.3457 30.1602 27.3711 25.082C27.3457 20.0547 29.9355 16.8555 33.4902 16.8555ZM33.4902 19.7754C31.6875 19.7754 30.4941 21.6543 30.4941 25.082C30.4941 28.5352 31.6875 30.3887 33.4902 30.3887C35.2422 30.3887 36.4355 28.5352 36.4355 25.082C36.4355 21.6543 35.2422 19.7754 33.4902 19.7754ZM68.1109 15.2559V32.293H64.8862V23.9648H60.6206V28.6367H49.6265V16.7539H52.8765V20.3086H57.4214V16.7539H60.6206V21.375H64.8862V15.2559H68.1109ZM68.5933 35.3398V37.9297H52.7241V30.5918H55.9995V35.3398H68.5933ZM52.8765 26.0977H57.4214V22.7715H52.8765V26.0977ZM87.2564 16.4238V18.9883H80.0962V23.6602C84.1207 23.6475 86.5455 23.4697 89.2623 22.8984L89.5923 25.4121C86.5962 26.0977 83.7779 26.1992 78.8013 26.1738H76.8716V16.4238H87.2564ZM94.3912 15.2305V19.5977H97.5142V22.2383H94.3912V26.7324H91.1412V15.2305H94.3912ZM94.3912 27.6719V34.0449H82.2798V35.4922H95.0513V38.082H79.106V31.6074H91.1666V30.2363H79.0552V27.6719H94.3912ZM118.043 15.2305V38.3359H114.945V15.2305H118.043ZM113.219 15.5605V37.2695H110.172V26.3516H108.318C108.014 30.8965 106.084 33.6387 103.24 33.6387C100.193 33.6387 98.213 30.4395 98.213 25.2344C98.213 20.0547 100.193 16.8809 103.24 16.8809C106.021 16.8809 107.925 19.4707 108.293 23.7871H110.172V15.5605H113.219ZM103.24 19.9277C101.945 19.9277 101.184 21.7051 101.209 25.2344C101.184 28.7891 101.945 30.541 103.24 30.5156C104.561 30.541 105.348 28.7891 105.348 25.2344C105.348 21.7051 104.561 19.9277 103.24 19.9277ZM138.724 21.5273V24.0664H122.576V16.043H125.8V21.5273H138.724ZM141.086 26.5547V29.0938H119.935V26.5547H141.086ZM138.877 35.2383V37.8281H122.373V30.9727H125.623V35.2383H138.877ZM110.07 53.4395C110.045 60.5742 108.318 66.5156 99.6856 70.832L97.9083 68.3945C101.768 66.4775 104.066 64.332 105.373 61.7676L98.543 62.4023L98.1368 59.6348L106.363 59.127C106.592 58.1621 106.757 57.1211 106.846 56.0293H99.3555V53.4395H110.07ZM116.24 51.2305V60.0918H119.516V62.7578H116.24V74.2852H112.99V51.2305H116.24ZM129.304 53.7949V56.334H123.744V60.0156H128.39V62.4785H123.744V66.6172C126.219 66.6045 128.047 66.4648 130.193 66.1094L130.472 68.7246C127.832 69.207 125.597 69.2324 122.22 69.2324H120.671V53.7949H129.304ZM139.994 51.2305V74.3359H136.871V51.2305H139.994ZM135.093 51.6367V73.2949H132.072V62.25H129.482V59.6602H132.072V51.6367H135.093ZM160.954 53.2363V55.4199C160.954 58.3145 160.954 61.5645 160.015 66.4648L156.765 66.1348C157.641 61.7676 157.679 58.5176 157.704 55.8008H144.095V53.2363H160.954ZM162.985 68.877V71.5176H141.911V68.877H149.452V60.9297H152.677V68.877H162.985ZM183.235 51.2305V74.3867H180.01V51.2305H183.235ZM176.075 53.1602V62.0723H168.458V66.3125C171.974 66.2998 174.97 66.0967 178.36 65.5508L178.639 68.166C174.831 68.8262 171.403 68.9785 167.188 68.9785H165.106V59.5078H172.774V55.7754H165.081V53.1602H176.075ZM209.922 52.1699V53.7441C209.922 55.2295 209.922 57.083 209.49 59.4062H212.435V61.9453H191.285V59.4062H206.215C206.595 57.5273 206.672 56.0166 206.697 54.7344H193.875V52.1699H209.922ZM209.82 63.5703V70.0449H196.922V71.6699H210.455V74.1582H193.697V67.6074H206.621V66.084H193.672V63.5703H209.82ZM223.773 51.5605C229.079 51.5605 232.152 52.957 232.177 55.4961C232.152 58.0605 229.079 59.457 223.773 59.457C218.441 59.457 215.343 58.0605 215.343 55.4961C215.343 52.957 218.441 51.5605 223.773 51.5605ZM223.773 53.9219C220.37 53.9219 218.72 54.4805 218.745 55.4961C218.72 56.6387 220.37 57.0703 223.773 57.0703C227.2 57.0703 228.825 56.6387 228.825 55.4961C228.825 54.4805 227.2 53.9219 223.773 53.9219ZM234.31 60.5488V63.1133H213.236V60.5488H234.31ZM231.745 64.459V70.3496H218.872V71.7461H232.355V74.1836H215.698V68.0898H228.546V66.8203H215.673V64.459H231.745ZM34.252 108.254C30.2148 108.254 27.3203 106.02 27.2441 102.82H31.1035C31.1797 104.191 32.5 105.105 34.2773 105.105C36.1055 105.105 37.4258 104.064 37.4004 102.592C37.4258 101.094 36.0801 100.027 33.9219 100.027H32.2207V97.209H33.9219C35.7246 97.209 36.9941 96.2188 36.9941 94.7715C36.9941 93.375 35.9277 92.4102 34.3027 92.4102C32.6777 92.4102 31.332 93.3242 31.2812 94.7207H27.625C27.6758 91.5469 30.5449 89.3633 34.3027 89.3633C38.1367 89.3633 40.7012 91.623 40.6758 94.543C40.7012 96.5996 39.2539 98.0723 37.1973 98.4277V98.5801C39.8887 98.9102 41.3867 100.561 41.3613 102.846C41.3867 105.994 38.3906 108.254 34.252 108.254ZM62.7027 87.2305V110.336H59.5796V98.5801H57.4722V109.32H54.4507V87.8398H57.4722V95.9902H59.5796V87.2305H62.7027ZM52.8257 90.0742C52.8003 96.5234 50.8706 101.805 44.3706 105.588L42.4917 103.354C47.2017 100.586 49.2202 97.1963 49.6773 92.6641H43.6597V90.0742H52.8257ZM83.3209 88.5762V91.166H78.7252C78.7505 93.8701 80.3502 96.6377 84.108 97.8438L82.4576 100.357C79.8931 99.5322 78.1285 97.8818 77.1255 95.8125C76.0972 98.0723 74.2564 99.8623 71.565 100.738L69.8384 98.25C73.6597 97.0186 75.399 94.0605 75.4498 91.166H70.7271V88.5762H83.3209ZM88.5259 87.2305V92.8418H91.649V95.5332H88.5259V101.17H85.2759V87.2305H88.5259ZM88.5259 102.16V110.336H85.2759V104.725H72.9615V102.16H88.5259ZM100.879 90.3789C100.854 93.4766 102.453 96.3203 106.16 97.4629L104.459 100.002C101.971 99.1387 100.282 97.5391 99.3302 95.457C98.2891 97.8691 96.4229 99.7734 93.6427 100.713L91.9415 98.123C95.9024 96.8535 97.5782 93.7559 97.6036 90.5312V88.4238H100.879V90.3789ZM111.619 87.2305V100.764H108.395V94.1113H104.053V91.4707H108.395V87.2305H111.619ZM103.723 101.373C108.649 101.373 111.67 103.023 111.695 105.867C111.67 108.711 108.649 110.336 103.723 110.336C98.797 110.336 95.7755 108.711 95.7755 105.867C95.7755 103.023 98.797 101.373 103.723 101.373ZM103.723 103.887C100.65 103.887 99.0001 104.547 99.0001 105.867C99.0001 107.137 100.65 107.822 103.723 107.822C106.795 107.822 108.471 107.137 108.471 105.867C108.471 104.547 106.795 103.887 103.723 103.887ZM133.951 87.2559V101.475H130.879V95.7871H129.076V101.221H126.054V87.5605H129.076V93.1719H130.879V87.2559H133.951ZM125.318 89.4395V92.0039H113.968V89.4395H118.056V87.3574H121.281V89.4395H125.318ZM119.681 92.7402C122.627 92.7402 124.709 94.3652 124.734 96.7773C124.709 99.1387 122.627 100.814 119.681 100.814C116.787 100.814 114.679 99.1387 114.679 96.7773C114.679 94.3652 116.787 92.7402 119.681 92.7402ZM119.681 95.0508C118.412 95.0508 117.574 95.6348 117.574 96.7773C117.574 97.8691 118.412 98.4785 119.681 98.4785C120.951 98.4785 121.789 97.8691 121.814 96.7773C121.789 95.6348 120.951 95.0508 119.681 95.0508ZM122.957 102.668C122.931 104.356 123.68 106.096 125.521 107.238C127.349 106.032 128.162 104.204 128.187 102.668V102.186H131.412V102.668C131.386 104.826 132.681 106.857 135.754 107.645L134.255 110.057C132.021 109.384 130.548 108.038 129.761 106.324C129 108.025 127.667 109.523 125.572 110.285C123.414 109.536 122.055 108.127 121.332 106.426C120.481 108.051 119.034 109.371 116.914 110.057L115.39 107.645C118.386 106.781 119.732 104.699 119.732 102.668V102.186H122.957V102.668ZM142.419 88.8555C145.542 88.8555 147.865 91.4326 148.335 95.584H152.347V87.2305H155.546V110.387H152.347V98.1738H148.36C148.018 102.617 145.644 105.334 142.419 105.334C138.915 105.334 136.401 102.16 136.427 97.082C136.401 92.0547 138.915 88.8555 142.419 88.8555ZM142.419 91.7754C140.692 91.7754 139.499 93.6543 139.525 97.082C139.499 100.535 140.692 102.389 142.419 102.389C144.171 102.389 145.314 100.535 145.314 97.082C145.314 93.6543 144.171 91.7754 142.419 91.7754ZM179.147 104.979V107.645H157.997V104.979H162.719V99.3164C160.929 98.25 159.85 96.6123 159.85 94.5684C159.85 90.8359 163.506 88.3477 168.534 88.3477C173.536 88.3477 177.217 90.8359 177.243 94.5684C177.23 96.5615 176.176 98.1865 174.45 99.2656V104.979H179.147ZM168.534 90.9121C165.233 90.9121 163.049 92.2324 163.049 94.5684C163.049 96.8281 165.233 98.2246 168.534 98.2246C171.809 98.2246 174.018 96.8281 174.044 94.5684C174.018 92.2324 171.809 90.9121 168.534 90.9121ZM165.919 104.979H171.174V100.484C170.349 100.649 169.461 100.738 168.534 100.738C167.607 100.738 166.731 100.662 165.919 100.484V104.979ZM182.944 108.229C181.75 108.229 180.785 107.264 180.811 106.096C180.785 104.928 181.75 103.988 182.944 103.988C184.061 103.988 185.051 104.928 185.051 106.096C185.051 107.264 184.061 108.229 182.944 108.229Z" fill="black"/>
<path d="M46.0332 51.2305V74.3867H42.7578V51.2305H46.0332ZM39.3301 53.2617V55.9023H31.332V66.1348C35.4707 66.1221 38.0098 66.0332 40.9297 65.5L41.2344 68.166C38.0352 68.7754 35.0898 68.877 30.0879 68.877H28.082V53.2617H39.3301ZM57.1675 57.5273C57.1421 61.0566 59.021 65.1191 62.8296 66.8711L61.0269 69.4102C58.4497 68.2295 56.6089 65.8682 55.5933 63.0879C54.5523 66.1475 52.6607 68.7373 49.982 69.9941L48.103 67.4297C51.9624 65.627 53.8921 61.3359 53.9175 57.5273V56.1055H49.0171V53.4648H61.814V56.1055H57.1675V57.5273ZM66.8667 51.2305V60.041H70.2691V62.7578H66.8667V74.3359H63.6167V51.2305H66.8667ZM89.9346 51.2559V67.8613H86.6846V51.2559H89.9346ZM90.544 71.3398V73.9297H74.4463V66.1855H77.7217V71.3398H90.544ZM77.2647 52.7285C80.8194 52.7285 83.587 55.166 83.587 58.543C83.587 61.9961 80.8194 64.4082 77.2647 64.4082C73.71 64.4082 70.9424 61.9961 70.9424 58.543C70.9424 55.166 73.71 52.7285 77.2647 52.7285ZM77.2647 55.5469C75.462 55.5215 74.0909 56.6641 74.1162 58.543C74.0909 60.4727 75.462 61.5898 77.2647 61.5898C79.0166 61.5898 80.3877 60.4727 80.3877 58.543C80.3877 56.6641 79.0166 55.5215 77.2647 55.5469Z" fill="#358FFF"/>
<rect width="71.2298" height="69.1348" rx="2" transform="matrix(-0.942164 -0.335151 -0.335151 0.942164 338.28 234.448)" fill="#358FFF"/>
<rect width="79.6098" height="16.76" rx="2" transform="matrix(-0.655519 -0.755179 -0.755179 0.655519 352.345 222.908)" fill="#FFC465"/>
<rect width="71.2298" height="69.1348" rx="2" transform="matrix(-0.916932 0.399043 0.399043 0.916932 256.749 135.644)" fill="#FFC465"/>
<rect width="79.6098" height="16.76" rx="2" transform="matrix(-0.750017 0.661418 0.661418 0.750017 242.467 110.055)" fill="#358FFF"/>
<circle cx="261.91" cy="176.929" r="2.25429" transform="rotate(-21.737 261.91 176.929)" fill="black"/>
<path d="M254.334 187.147C256.333 188.88 260.907 190.706 263.207 184.144" stroke="black" stroke-linecap="round"/>
<path d="M247 181.6C248.071 182.182 250.667 182.627 252.487 179.742" stroke="black" stroke-linecap="round"/>
<path d="M280.088 245.398C279.361 246.829 277.84 247.372 276.751 246.818C275.662 246.265 275.203 244.717 275.93 243.286C276.656 241.855 278.177 241.313 279.267 241.866C280.356 242.42 280.815 243.968 280.088 245.398Z" stroke="black"/>
<path d="M286.136 238.047C286.162 239.588 287.171 242.322 291 240.929" stroke="black" stroke-linecap="round"/>
<path d="M274.887 232.423C274.913 233.964 275.922 236.697 279.751 235.304" stroke="black" stroke-linecap="round"/>
<path d="M288.164 118.816L284.424 134.242" stroke="#358FFF" stroke-width="1.5" stroke-linecap="round"/>
<path d="M281.096 120.004L292.783 132.626" stroke="#358FFF" stroke-width="1.5" stroke-linecap="round"/>
<path d="M279 127.416L294.426 123.676" stroke="#358FFF" stroke-width="1.5" stroke-linecap="round"/>
<path d="M228.918 260.325L212 269.866" stroke="#FFC465" stroke-width="1.5" stroke-linecap="round"/>
<path d="M221.95 255L220.425 275.992" stroke="#FFC465" stroke-width="1.5" stroke-linecap="round"/>
<path d="M213.572 259.313L229.801 269.984" stroke="#FFC465" stroke-width="1.5" stroke-linecap="round"/>
<path d="M353.554 246.692L345 251.516" stroke="#358FFF" stroke-width="1.5" stroke-linecap="round"/>
<path d="M350.031 244L349.26 254.614" stroke="#358FFF" stroke-width="1.5" stroke-linecap="round"/>
<path d="M345.795 246.18L354 251.575" stroke="#358FFF" stroke-width="1.5" stroke-linecap="round"/>
<path d="M300.29 106.716L294.4 100.645" stroke="#FFC465" stroke-width="1.5" stroke-linecap="round"/>
<path d="M301.763 103.192L292.752 104.872" stroke="#FFC465" stroke-width="1.5" stroke-linecap="round"/>
<path d="M299.019 100.137L296.319 108.154" stroke="#FFC465" stroke-width="1.5" stroke-linecap="round"/>
<path d="M41.4102 391.753V409.565H38.8906V391.753H41.4102ZM31.7617 393.003C34.4375 393.003 36.4297 395.464 36.4297 399.331C36.4297 403.237 34.4375 405.679 31.7617 405.679C29.0273 405.679 27.0352 403.237 27.0547 399.331C27.0352 395.464 29.0273 393.003 31.7617 393.003ZM31.7617 395.249C30.375 395.249 29.457 396.694 29.457 399.331C29.457 401.987 30.375 403.413 31.7617 403.413C33.1094 403.413 34.0273 401.987 34.0273 399.331C34.0273 396.694 33.1094 395.249 31.7617 395.249ZM58.393 391.772V404.878H55.9125V398.472H52.6313V402.065H44.1742V392.925H46.6742V395.659H50.1703V392.925H52.6313V396.479H55.9125V391.772H58.393ZM58.7641 407.222V409.214H46.557V403.569H49.0766V407.222H58.7641ZM46.6742 400.112H50.1703V397.554H46.6742V400.112ZM73.1203 392.671V394.644H67.6125V398.237C70.7082 398.228 72.5734 398.091 74.6633 397.651L74.9172 399.585C72.6125 400.112 70.4445 400.19 66.6164 400.171H65.132V392.671H73.1203ZM78.6086 391.753V395.112H81.0109V397.144H78.6086V400.601H76.1086V391.753H78.6086ZM78.6086 401.323V406.226H69.2922V407.339H79.1164V409.331H66.8508V404.351H76.1281V403.296H66.8117V401.323H78.6086ZM95.6992 392.788V394.78H92.1641C92.1836 396.86 93.4141 398.989 96.3047 399.917L95.0352 401.851C93.0625 401.216 91.7051 399.946 90.9336 398.354C90.1426 400.093 88.7266 401.47 86.6562 402.144L85.3281 400.229C88.2676 399.282 89.6055 397.007 89.6445 394.78H86.0117V392.788H95.6992ZM99.7031 391.753V396.069H102.105V398.14H99.7031V402.476H97.2031V391.753H99.7031ZM99.7031 403.237V409.526H97.2031V405.21H87.7305V403.237H99.7031ZM109.205 394.175C109.186 396.558 110.416 398.745 113.268 399.624L111.959 401.577C110.045 400.913 108.746 399.683 108.014 398.081C107.213 399.937 105.778 401.401 103.639 402.124L102.33 400.132C105.377 399.155 106.666 396.772 106.686 394.292V392.671H109.205V394.175ZM117.467 391.753V402.163H114.987V397.046H111.647V395.015H114.987V391.753H117.467ZM111.393 402.632C115.182 402.632 117.506 403.901 117.526 406.089C117.506 408.276 115.182 409.526 111.393 409.526C107.604 409.526 105.28 408.276 105.28 406.089C105.28 403.901 107.604 402.632 111.393 402.632ZM111.393 404.565C109.03 404.565 107.76 405.073 107.76 406.089C107.76 407.065 109.03 407.593 111.393 407.593C113.756 407.593 115.045 407.065 115.045 406.089C115.045 405.073 113.756 404.565 111.393 404.565ZM129.743 397.202V399.194H126.559V400.991C127.966 400.923 129.362 400.835 130.68 400.698L130.856 402.476C127.087 403.003 123.063 403.101 119.782 403.101L119.45 401.128C120.876 401.118 122.448 401.108 124.059 401.069V399.194H120.954V392.827H129.587V394.819H123.454V397.202H129.743ZM134.313 391.733V405.132H131.774V391.733H134.313ZM134.782 407.222V409.214H122.204V404.116H124.723V407.222H134.782ZM149.744 393.452C149.724 398.94 148.396 403.511 141.755 406.831L140.388 404.956C143.357 403.481 145.125 401.831 146.13 399.858L140.877 400.347L140.564 398.218L146.892 397.827C147.068 397.085 147.195 396.284 147.263 395.444H141.502V393.452H149.744ZM154.49 391.753V398.569H157.009V400.62H154.49V409.487H151.99V391.753H154.49ZM164.539 393.726V395.679H160.262V398.511H163.836V400.405H160.262V403.589C162.166 403.579 163.572 403.472 165.223 403.198L165.438 405.21C163.406 405.581 161.688 405.601 159.09 405.601H157.898V393.726H164.539ZM172.762 391.753V409.526H170.359V391.753H172.762ZM168.992 392.065V408.726H166.668V400.229H164.676V398.237H166.668V392.065H168.992ZM188.885 393.296V394.976C188.885 397.202 188.885 399.702 188.163 403.472L185.663 403.218C186.336 399.858 186.366 397.358 186.385 395.269H175.916V393.296H188.885ZM190.448 405.327V407.358H174.237V405.327H180.038V399.214H182.518V405.327H190.448ZM206.024 391.753V409.565H203.544V391.753H206.024ZM200.516 393.237V400.093H194.657V403.354C197.362 403.345 199.667 403.188 202.274 402.769L202.489 404.78C199.559 405.288 196.923 405.405 193.68 405.405H192.079V398.12H197.977V395.249H192.059V393.237H200.516Z" fill="black"/>
<rect x="18" y="426.729" width="354" height="168" rx="10" fill="#FAFAFA"/>
<path d="M71.0156 452.104V466.026H69.7812V452.104H71.0156ZM67.0781 453.433V454.464H61.7031V461.511C64.4062 461.511 66.1875 461.425 68.2656 461.058L68.3906 462.089C66.2344 462.479 64.4062 462.558 61.5938 462.573H60.4688V453.433H67.0781ZM77.7738 456.37C77.7581 458.604 79.3675 461.058 81.3831 462.011L80.68 462.979C79.1175 462.222 77.7972 460.565 77.18 458.683C76.5394 460.729 75.1409 462.526 73.5863 463.323L72.8363 462.354C74.8363 461.386 76.555 458.745 76.5706 456.37V454.558H73.3363V453.542H80.8988V454.558H77.7738V456.37ZM83.8206 452.104V457.729H86.1488V458.776H83.8206V465.995H82.6019V452.104H83.8206ZM98.0475 452.12V462.276H96.8288V452.12H98.0475ZM98.485 464.667V465.698H89.0788V461.245H90.2975V464.667H98.485ZM90.5475 453.089C92.6256 453.089 94.1881 454.495 94.1881 456.495C94.1881 458.526 92.6256 459.917 90.5475 459.917C88.4694 459.917 86.9069 458.526 86.9069 456.495C86.9069 454.495 88.4694 453.089 90.5475 453.089ZM90.5475 454.167C89.1413 454.167 88.0944 455.136 88.11 456.495C88.0944 457.886 89.1413 458.839 90.5475 458.839C91.9225 458.839 92.985 457.886 92.985 456.495C92.985 455.136 91.9225 454.167 90.5475 454.167Z" fill="black"/>
<path d="M72.2812 499.167V500.214H59.5625V499.167H72.2812ZM71.0625 489.511V490.526H68.8594V495.386H71.0312V496.386H60.7188V495.386H62.8906V490.526H60.6875V489.511H71.0625ZM64.1094 495.386H67.6562V490.526H64.1094V495.386ZM85.7894 499.245V500.276H73.0706V499.245H78.7894V496.62H74.6644V492.339H82.9769V490.151H74.6331V489.136H84.18V493.339H75.8831V495.604H84.5081V496.62H79.9925V499.245H85.7894ZM97.5319 489.589V490.979C97.5319 492.729 97.5319 494.714 97.0163 497.729L95.7663 497.604C96.3288 494.761 96.3288 492.683 96.3288 490.979V490.604H87.9538V489.589H97.5319ZM99.235 498.933V499.948H86.5788V498.933H99.235ZM105.759 489.62V494.479H101.743V497.636C103.337 497.628 104.845 497.558 106.649 497.261L106.759 498.261C104.79 498.604 103.212 498.667 101.462 498.667H100.556V493.464H104.571V490.651H100.524V489.62H105.759ZM111.962 488.104V501.995H110.79V494.62H108.743V501.276H107.618V488.417H108.743V493.604H110.79V488.104H111.962ZM120.845 489.136V495.183H114.329V489.136H120.845ZM115.533 490.136V494.183H119.642V490.136H115.533ZM125.064 488.12V496.433H123.845V488.12H125.064ZM120.454 496.667C123.329 496.667 125.126 497.636 125.126 499.308C125.126 500.995 123.329 501.964 120.454 501.964C117.548 501.964 115.751 500.995 115.751 499.308C115.751 497.636 117.548 496.667 120.454 496.667ZM120.454 497.636C118.298 497.636 116.97 498.261 116.97 499.308C116.97 500.354 118.298 500.979 120.454 500.979C122.579 500.979 123.923 500.354 123.923 499.308C123.923 498.261 122.579 497.636 120.454 497.636Z" fill="black"/>
<path d="M66.5469 525.511V534.464H60.1406V525.511H66.5469ZM61.3281 526.495V533.464H65.3281V526.495H61.3281ZM70.3125 524.104V529.651H72.6406V530.714H70.3125V537.995H69.0938V524.104H70.3125ZM79.1956 525.761C79.1878 527.073 79.0394 528.37 78.6488 529.604H80.8675V524.479H82.0394V537.292H80.8675V530.62H78.2425C77.4613 532.331 76.1019 533.878 73.8675 535.104L73.1644 534.229C75.305 533.065 76.5784 531.604 77.2894 529.964L73.3206 530.37L73.1331 529.276L77.6331 528.995C77.8284 528.276 77.9456 527.534 77.9925 526.776H73.805V525.761H79.1956ZM84.9613 524.104V537.995H83.7894V524.104H84.9613ZM94.0475 525.136V526.136H88.6256V527.886H93.6569V528.886H88.6256V530.714C91.5866 530.714 93.2272 530.659 95.1881 530.339L95.3131 531.339C93.2819 531.667 91.5788 531.729 88.5163 531.729H87.3913V525.136H94.0475ZM98.0475 524.12V532.729H96.8288V524.12H98.0475ZM93.4381 532.933C96.3288 532.917 98.11 533.839 98.11 535.433C98.11 537.058 96.3288 537.964 93.4381 537.964C90.485 537.964 88.735 537.058 88.735 535.433C88.735 533.839 90.485 532.917 93.4381 532.933ZM93.4381 533.901C91.2506 533.901 89.9538 534.479 89.9538 535.433C89.9538 536.417 91.2506 536.995 93.4381 536.995C95.5631 536.995 96.9069 536.417 96.9069 535.433C96.9069 534.479 95.5631 533.901 93.4381 533.901Z" fill="black"/>
<path d="M71.0781 560.12V568.464H69.8438V566.589H66.1562V565.573H69.8438V563.698H66.2969C65.3828 565.933 63.2344 567.55 60.2656 568.433L59.75 567.464C63.1094 566.464 65.1953 564.589 65.4531 562.183H60.4531V561.151H66.7812C66.7812 561.698 66.7188 562.222 66.6094 562.714H69.8438V560.12H71.0781ZM66.5312 568.604C69.3438 568.604 71.1562 569.604 71.1562 571.261C71.1562 572.933 69.3438 573.933 66.5312 573.933C63.6875 573.933 61.8906 572.933 61.8906 571.261C61.8906 569.604 63.6875 568.604 66.5312 568.604ZM66.5312 569.589C64.4375 569.573 63.0938 570.214 63.0938 571.261C63.0938 572.308 64.4375 572.933 66.5312 572.933C68.5938 572.933 69.9219 572.308 69.9375 571.261C69.9219 570.214 68.5938 569.573 66.5312 569.589ZM84.9456 560.104V573.995H83.7738V560.104H84.9456ZM82.1331 560.448V573.276H80.9769V566.12H78.6331V565.12H80.9769V560.448H82.1331ZM77.1488 564.073C77.1488 566.479 78.2269 568.87 80.1488 569.979L79.3988 570.886C78.0316 570.065 77.0628 568.565 76.5863 566.792C76.0784 568.706 75.0706 570.339 73.68 571.214L72.8988 570.292C74.8363 569.136 75.9613 566.604 75.9613 564.073V562.761H73.2894V561.745H79.6956V562.761H77.1488V564.073Z" fill="black"/>
<path d="M326.351 464.886C323.867 464.886 322.086 463.511 322.039 461.542H324.414C324.461 462.386 325.273 462.948 326.367 462.948C327.492 462.948 328.304 462.308 328.289 461.401C328.304 460.479 327.476 459.823 326.148 459.823H325.101V458.089H326.148C327.257 458.089 328.039 457.479 328.039 456.589C328.039 455.729 327.382 455.136 326.382 455.136C325.382 455.136 324.554 455.698 324.523 456.558H322.273C322.304 454.604 324.07 453.261 326.382 453.261C328.742 453.261 330.32 454.651 330.304 456.448C330.32 457.714 329.429 458.62 328.164 458.839V458.933C329.82 459.136 330.742 460.151 330.726 461.558C330.742 463.495 328.898 464.886 326.351 464.886ZM343.859 451.948V466.167H341.938V458.933H340.641V465.542H338.781V452.323H340.641V457.339H341.938V451.948H343.859ZM337.781 453.698C337.766 457.667 336.578 460.917 332.578 463.245L331.422 461.87C334.32 460.167 335.562 458.081 335.844 455.292H332.141V453.698H337.781Z" fill="black"/>
<path d="M322.617 500.729L322.601 499.026L326.664 495.292C327.726 494.276 328.289 493.651 328.289 492.761C328.289 491.761 327.523 491.136 326.492 491.136C325.429 491.136 324.742 491.808 324.742 492.886H322.507C322.492 490.667 324.132 489.261 326.523 489.261C328.945 489.261 330.554 490.636 330.554 492.604C330.554 493.886 329.929 494.948 327.601 497.058L325.882 498.729V498.792H330.711V500.729H322.617ZM343.859 487.948V502.167H341.938V494.933H340.641V501.542H338.781V488.323H340.641V493.339H341.938V487.948H343.859ZM337.781 489.698C337.766 493.667 336.578 496.917 332.578 499.245L331.422 497.87C334.32 496.167 335.562 494.081 335.844 491.292H332.141V489.698H337.781Z" fill="black"/>
<path d="M329.757 525.417V536.729H327.398V527.651H327.336L324.742 529.276V527.198L327.539 525.417H329.757ZM343.859 523.948V538.167H341.938V530.933H340.641V537.542H338.781V524.323H340.641V529.339H341.938V523.948H343.859ZM337.781 525.698C337.766 529.667 336.578 532.917 332.578 535.245L331.422 533.87C334.32 532.167 335.562 530.081 335.844 527.292H332.141V525.698H337.781Z" fill="black"/>
<path d="M329.757 561.417V572.729H327.398V563.651H327.336L324.742 565.276V563.198L327.539 561.417H329.757ZM343.859 559.948V574.167H341.938V566.933H340.641V573.542H338.781V560.323H340.641V565.339H341.938V559.948H343.859ZM337.781 561.698C337.766 565.667 336.578 568.917 332.578 571.245L331.422 569.87C334.32 568.167 335.562 566.081 335.844 563.292H332.141V561.698H337.781Z" fill="black"/>
<circle cx="46" cy="458.729" r="4" fill="#358FFF"/>
<circle cx="46" cy="494.729" r="4" fill="#358FFF"/>
<circle cx="46" cy="530.729" r="4" fill="#358FFF"/>
<circle cx="46" cy="566.729" r="4" fill="#358FFF"/>
<rect y="342.729" width="390" height="12" fill="#F5F6FA"/>
</svg>
