<svg width="44" height="40" viewBox="0 0 44 40" fill="none" xmlns="http://www.w3.org/2000/svg">
<g id="Group 8683">
<rect id="Rectangle 4297" x="5" y="4" width="34" height="33" rx="2" fill="#358FFF"/>
<rect id="Rectangle 4298" x="3" y="3" width="38" height="8" rx="2" fill="#FFC465"/>
<g id="&#237;&#133;&#140;&#235;&#145;&#144;&#235;&#166;&#172;">
<mask id="path-3-outside-1_39_5821" maskUnits="userSpaceOnUse" x="0" y="0" width="44" height="40" fill="black">
<rect fill="white" width="44" height="40"/>
<path fill-rule="evenodd" clip-rule="evenodd" d="M5 3C3.89543 3 3 3.89543 3 5V9C3 10.1046 3.89543 11 5 11L5 35C5 36.1046 5.89543 37 7 37H37C38.1046 37 39 36.1046 39 35V11C40.1046 11 41 10.1046 41 9V5C41 3.89543 40.1046 3 39 3H5Z"/>
</mask>
<path d="M5 11L8 11L8 8H5V11ZM5 35L8 35L8 35L5 35ZM39 11V8H36V11H39ZM6 5C6 5.55228 5.55228 6 5 6V0C2.23858 0 0 2.23858 0 5H6ZM6 9V5H0V9H6ZM5 8C5.55229 8 6 8.44772 6 9H0C0 11.7614 2.23857 14 5 14V8ZM8 35L8 11L2 11L2 35L8 35ZM7 34C7.55229 34 8 34.4477 8 35H2C2 37.7614 4.23857 40 7 40V34ZM37 34H7V40H37V34ZM36 35C36 34.4477 36.4477 34 37 34V40C39.7614 40 42 37.7614 42 35H36ZM36 11V35H42V11H36ZM38 9C38 8.44771 38.4477 8 39 8V14C41.7614 14 44 11.7614 44 9H38ZM38 5V9H44V5H38ZM39 6C38.4477 6 38 5.55229 38 5H44C44 2.23858 41.7614 0 39 0V6ZM5 6H39V0H5V6Z" fill="black" mask="url(#path-3-outside-1_39_5821)"/>
</g>
<g id="&#237;&#133;&#140;&#235;&#145;&#144;&#235;&#166;&#172;_2">
<mask id="path-5-outside-2_39_5821" maskUnits="userSpaceOnUse" x="2.00024" y="2" width="40" height="36" fill="black">
<rect fill="white" x="2.00024" y="2" width="40" height="36"/>
<path fill-rule="evenodd" clip-rule="evenodd" d="M5.00024 3C3.89567 3 3.00024 3.89543 3.00024 5V8.99998C3.00024 10.1046 3.89568 11 5.00025 11H5.00048V35C5.00048 36.1046 5.89591 37 7.00048 37H37.0004C38.105 37 39.0004 36.1046 39.0004 35V11C40.1049 10.9999 41.0002 10.1045 41.0002 8.99998V5C41.0002 3.89543 40.1047 3 39.0002 3H5.00024Z"/>
</mask>
<path d="M5.00048 11H6.00048V9.99998H5.00048V11ZM39.0004 11L39.0003 9.99998L38.0004 10.0001V11H39.0004ZM4.00024 5C4.00024 4.44771 4.44796 4 5.00024 4V2C3.34339 2 2.00024 3.34314 2.00024 5H4.00024ZM4.00024 8.99998V5H2.00024V8.99998H4.00024ZM5.00025 9.99998C4.44796 9.99998 4.00024 9.55227 4.00024 8.99998H2.00024C2.00024 10.6568 3.34339 12 5.00025 12V9.99998ZM5.00048 9.99998H5.00025V12H5.00048V9.99998ZM6.00048 35V11H4.00048V35H6.00048ZM7.00048 36C6.44819 36 6.00048 35.5523 6.00048 35H4.00048C4.00048 36.6569 5.34363 38 7.00048 38V36ZM37.0004 36H7.00048V38H37.0004V36ZM38.0004 35C38.0004 35.5523 37.5527 36 37.0004 36V38C38.6573 38 40.0004 36.6569 40.0004 35H38.0004ZM38.0004 11V35H40.0004V11H38.0004ZM40.0002 8.99998C40.0002 9.55223 39.5525 9.99992 39.0003 9.99998L39.0005 12C40.6572 11.9998 42.0002 10.6567 42.0002 8.99998H40.0002ZM40.0002 5V8.99998H42.0002V5H40.0002ZM39.0002 4C39.5524 4 40.0002 4.44772 40.0002 5H42.0002C42.0002 3.34315 40.657 2 39.0002 2V4ZM5.00024 4H39.0002V2H5.00024V4Z" fill="white" mask="url(#path-5-outside-2_39_5821)"/>
</g>
</g>
</svg>
