<svg width="38" height="34" viewBox="0 0 38 34" fill="none" xmlns="http://www.w3.org/2000/svg">
<rect x="2" y="1" width="34" height="33" rx="2" fill="#B0D3FF"/>
<rect width="38" height="8" rx="2" fill="#FFEBCA"/>
<path d="M15.9974 14.2734V27H14.0462V16.207H13.9759L10.9349 18.1934V16.3477L14.0989 14.2734H15.9974ZM23.2487 14.0977C25.5866 14.1152 28.0475 15.5215 28.0475 20.1797C28.0475 24.6445 26.1315 27.1758 23.0729 27.1758C20.735 27.1758 19.0827 25.7344 18.7839 23.6602H20.6999C20.9636 24.7324 21.7897 25.4883 23.0729 25.4883C25.0417 25.4883 26.1843 23.7656 26.2018 20.8652H26.0436C25.3581 21.9375 24.1628 22.5879 22.7917 22.5879C20.5065 22.5879 18.6784 20.8477 18.6784 18.4043C18.6784 15.9785 20.4889 14.0801 23.2487 14.0977ZM23.2487 15.7148C21.7018 15.7148 20.5593 16.9102 20.5593 18.3691C20.5593 19.8457 21.6667 21.0059 23.2136 21.0059C24.7429 21.0059 25.9382 19.7578 25.9382 18.3516C25.9382 16.9805 24.8132 15.7148 23.2487 15.7148Z" fill="white"/>
</svg>
